<?xml version="1.0" encoding="UTF-8" standalone="no"?>
<!-- Created with Inkscape (http://www.inkscape.org/) -->

<svg
   xmlns:dc="http://purl.org/dc/elements/1.1/"
   xmlns:cc="http://creativecommons.org/ns#"
   xmlns:rdf="http://www.w3.org/1999/02/22-rdf-syntax-ns#"
   xmlns:svg="http://www.w3.org/2000/svg"
   xmlns="http://www.w3.org/2000/svg"
   xmlns:sodipodi="http://sodipodi.sourceforge.net/DTD/sodipodi-0.dtd"
   xmlns:inkscape="http://www.inkscape.org/namespaces/inkscape"
   width="210mm"
   height="297mm"
   viewBox="0 0 210 297"
   version="1.1"
   id="svg875"
   inkscape:version="0.92.3 (2405546, 2018-03-11)"
   sodipodi:docname="logo.svg">
  <defs
     id="defs869">
    <filter
       style="color-interpolation-filters:sRGB;"
       inkscape:label="Greyscale"
       id="filter1682">
      <feColorMatrix
         values="0.05 0.68 0.57 -0.14 0 0.05 0.68 0.57 -0.14 0 0.05 0.68 0.57 -0.14 0 0 0 0 1 0 "
         id="feColorMatrix1680"
         result="fbSourceGraphic" />
      <feColorMatrix
         result="fbSourceGraphicAlpha"
         in="fbSourceGraphic"
         values="0 0 0 -1 0 0 0 0 -1 0 0 0 0 -1 0 0 0 0 1 0"
         id="feColorMatrix1684" />
      <feColorMatrix
         id="feColorMatrix1686"
         values="0.05 0.68 0.57 -0.14 0 0.05 0.68 0.57 -0.14 0 0.05 0.68 0.57 -0.14 0 0 0 0 1 0 "
         in="fbSourceGraphic" />
    </filter>
  </defs>
  <sodipodi:namedview
     id="base"
     pagecolor="#ffffff"
     bordercolor="#666666"
     borderopacity="1.0"
     inkscape:pageopacity="0.0"
     inkscape:pageshadow="2"
     inkscape:zoom="0.35"
     inkscape:cx="-64.285714"
     inkscape:cy="560"
     inkscape:document-units="mm"
     inkscape:current-layer="layer1"
     showgrid="false"
     inkscape:window-width="1920"
     inkscape:window-height="1017"
     inkscape:window-x="-8"
     inkscape:window-y="-8"
     inkscape:window-maximized="1" />
  <metadata
     id="metadata872">
    <rdf:RDF>
      <cc:Work
         rdf:about="">
        <dc:format>image/svg+xml</dc:format>
        <dc:type
           rdf:resource="http://purl.org/dc/dcmitype/StillImage" />
        <dc:title></dc:title>
      </cc:Work>
    </rdf:RDF>
  </metadata>
  <g
     inkscape:label="Layer 1"
     inkscape:groupmode="layer"
     id="layer1"
     style="opacity:1">
    <path
       style="fill:#696969;stroke-width:0.26458332"
       inkscape:connector-curvature="0"
       d="M 85.989583,2.4809532 H -18.785416 c -6.565106,0 -11.90625,5.3411437 -11.90625,11.9062498 V 119.1622 c 0,6.56511 5.341144,11.90625 11.90625,11.90625 H 59.53125 c 1.052777,0 2.062162,-0.4183 2.80617,-1.16258 L 96.733253,95.51004 c 0.744538,-0.744273 1.162579,-1.753659 1.162579,-2.806171 V 14.387203 c 0,-6.5651061 -5.341143,-11.9062498 -11.906249,-11.9062498 z"
       id="path1420" />
    <path
       style="fill:#696969;stroke-width:0.26458332"
       inkscape:connector-curvature="0"
       d="m 33.602083,2.4809532 h -52.387499 c -6.565106,0 -11.90625,5.3411437 -11.90625,11.9062498 v 52.387499 h 64.293749 z"
       id="path1422" />
    <path
       style="fill:#bb86fc;stroke-width:0.26458332;fill-opacity:1"
       inkscape:connector-curvature="0"
       d="M 97.895832,66.774702 V 14.387203 c 0,-6.5651061 -5.341143,-11.9062498 -11.906249,-11.9062498 h -52.3875 V 66.774702 Z"
       id="path1424" />
    <path
       style="fill:#bb86fc;stroke-width:0.26458332;fill-opacity:1"
       inkscape:connector-curvature="0"
       d="M -30.691666,66.774702 V 119.1622 c 0,6.56511 5.341144,11.90625 11.90625,11.90625 H 33.602083 V 66.774702 Z"
       id="path1428" />
    <path
       style="fill:#ffffff;stroke-width:0.26458332;fill-opacity:1"
       inkscape:connector-curvature="0"
       d="M 10.715625,30.659078 H 5.4239585 v -5.291667 c 0,-2.191808 -1.7769416,-3.96875 -3.9687499,-3.96875 -2.19180831,0 -3.96875,1.776942 -3.96875,3.96875 v 5.291667 H -7.805208 c -2.1918083,0 -3.96875,1.776941 -3.96875,3.96875 0,2.191808 1.7769417,3.96875 3.96875,3.96875 h 5.2916666 v 5.291666 c 0,2.191809 1.77694169,3.96875 3.96875,3.96875 2.1918083,0 3.9687499,-1.776941 3.9687499,-3.96875 v -5.291666 h 5.2916665 c 2.191808,0 3.96875,-1.776942 3.96875,-3.96875 0,-2.191809 -1.776942,-3.96875 -3.96875,-3.96875 z"
       id="path1430" />
    <path
       style="fill:#ffffff;stroke-width:0.26458332;fill-opacity:1"
       inkscape:connector-curvature="0"
       d="M 75.009374,38.596578 H 56.488541 c -2.191808,0 -3.96875,-1.776942 -3.96875,-3.96875 0,-2.191809 1.776942,-3.96875 3.96875,-3.96875 h 18.520833 c 2.191809,0 3.96875,1.776941 3.96875,3.96875 0,2.191808 -1.776941,3.96875 -3.96875,3.96875 z"
       id="path1432" />
    <path
       style="fill:#ffffff;stroke-width:0.26458332;fill-opacity:1"
       inkscape:connector-curvature="0"
       d="m 7.0678148,98.921577 3.8084122,-3.808412 c 1.549929,-1.54993 1.549929,-4.062677 0,-5.612607 -1.5496643,-1.549929 -4.0626768,-1.549929 -5.612606,0 l -3.8084124,3.808413 -3.8084125,-3.808413 c -1.5496645,-1.549929 -4.062677,-1.549929 -5.6126061,0 -1.5499292,1.54993 -1.5499292,4.062677 0,5.612607 l 3.8084124,3.808412 -3.8084124,3.808413 c -1.5499292,1.54993 -1.5499292,4.06268 0,5.61261 0.7749645,0.77496 1.7906999,1.16257 2.8061708,1.16257 1.0154708,0 2.0314708,-0.38735 2.8061708,-1.16257 l 3.8084124,-3.80842 3.8084125,3.80842 c 0.7749645,0.77496 1.7906999,1.16257 2.8061708,1.16257 1.0154708,0 2.0314707,-0.38735 2.8061707,-1.16257 1.549929,-1.54993 1.549929,-4.06268 0,-5.61261 z"
       id="path1434" />
    <g
       id="g1548"
       transform="matrix(0.18554688,0,0,0.18554688,17.295821,50.976202)"
       style="opacity:1;filter:url(#filter1682)">
      <path
         id="path1466"
         d="M 257,0 C 116.302,0 0,114.3 0,255 0,395.7 116.302,512 257,512 397.698,512 512,395.7 512,255 512,114.3 397.698,0 257,0 Z"
         style="fill:#fedb41"
         inkscape:connector-curvature="0" />
      <path
         id="path1468"
         d="M 512,255 C 512,395.7 397.698,512 257,512 V 0 c 140.698,0 255,114.3 255,255 z"
         style="fill:#ffcc33"
         inkscape:connector-curvature="0" />
      <path
         id="path1470"
         d="M 257,60 C 149.598,60 60,147.599 60,255 60,362.401 149.598,452 257,452 364.402,452 452,362.401 452,255 452,147.599 364.402,60 257,60 Z"
         style="fill:#fea832"
         inkscape:connector-curvature="0" />
      <path
         id="path1472"
         d="m 452,255 c 0,107.401 -87.598,197 -195,197 V 60 c 107.402,0 195,87.599 195,195 z"
         style="fill:#fe9923"
         inkscape:connector-curvature="0" />
      <path
         id="path1474"
         d="m 347,341 c -24.902,28.801 -58.499,39.901 -90,34.801 C 221.902,370.101 187.8,344.9 172.5,302 H 150 c -19.797,0 -19.797,-30 0,-30 h 16.201 c -1.501,-15.601 -1.501,-16.399 0,-32 H 150 c -8.401,0 -15,-6.599 -15,-15 0,-8.401 6.599,-15 15,-15 h 22.5 c 15.3,-43.2 49.999,-67.2 84.5,-72.599 32.402,-5.101 66.599,6.299 90,33.6 12.898,15 -9.602,34.499 -22.8,19.499 C 306.798,170.1 281.002,161.701 257,167.702 237.499,172.2 217.2,185.7 205.499,210 H 272 c 19.797,0 19.797,30 0,30 h -75.799 c -1.501,12.001 -1.501,19.999 0,32 H 272 c 19.797,0 19.797,30 0,30 h -66.501 c 11.7,24 32,37.8 51.501,42.299 24.001,6 49.797,-2.399 67.2,-22.798 13.198,-15 35.698,4.499 22.8,19.499 z"
         style="fill:#fedb41"
         inkscape:connector-curvature="0" />
      <g
         id="g1484"
         style="">
	<path
   id="path1476"
   d="m 272,302 h -15 v -30 h 15 c 19.797,0 19.797,30 0,30 z"
   style="fill:#ffcc33"
   inkscape:connector-curvature="0" />

	<path
   id="path1478"
   d="m 272,240 h -15 v -30 h 15 c 19.797,0 19.797,30 0,30 z"
   style="fill:#ffcc33"
   inkscape:connector-curvature="0" />

	<path
   id="path1480"
   d="m 347,341 c -24.902,28.801 -58.499,39.901 -90,34.801 V 344.3 c 24.001,6 49.797,-2.399 67.2,-22.798 C 337.398,306.501 359.898,326 347,341 Z"
   style="fill:#ffcc33"
   inkscape:connector-curvature="0" />

	<path
   id="path1482"
   d="m 257,167.701 v -30.3 c 32.402,-5.101 66.599,6.299 90,33.6 12.898,15 -9.602,34.499 -22.8,19.499 -17.403,-20.401 -43.199,-28.8 -67.2,-22.799 z"
   style="fill:#ffcc33"
   inkscape:connector-curvature="0" />

</g>
      <g
         id="g1486"
         style="">
</g>
      <g
         id="g1488"
         style="">
</g>
      <g
         id="g1490"
         style="">
</g>
      <g
         id="g1492"
         style="">
</g>
      <g
         id="g1494"
         style="">
</g>
      <g
         id="g1496"
         style="">
</g>
      <g
         id="g1498"
         style="">
</g>
      <g
         id="g1500"
         style="">
</g>
      <g
         id="g1502"
         style="">
</g>
      <g
         id="g1504"
         style="">
</g>
      <g
         id="g1506"
         style="">
</g>
      <g
         id="g1508"
         style="">
</g>
      <g
         id="g1510"
         style="">
</g>
      <g
         id="g1512"
         style="">
</g>
      <g
         id="g1514"
         style="">
</g>
    </g>
  </g>
  <g
     inkscape:groupmode="layer"
     id="layer2"
     inkscape:label="Layer 2" />
</svg>
